<?xml version="1.0" encoding="UTF-8" standalone="no"?>
<svg width="800" height="600" viewBox="0 0 800 600" xmlns="http://www.w3.org/2000/svg">
  <!-- Background -->
  <rect width="800" height="600" fill="#f9f9f9" rx="10" ry="10" />

  <!-- Main Card -->
  <rect x="100" y="50" width="600" height="500" rx="10" ry="10" fill="white" stroke="#e2e2e2" stroke-width="2" />
  
  <!-- Top Sort Option -->
  <rect x="110" y="60" width="130" height="40" rx="20" ry="20" fill="#FFF8F2" stroke="#FF6B2B" stroke-width="1" />
  <text x="150" y="85" font-family="Arial" font-size="18" font-weight="bold" fill="#FF6B2B">Expiry</text>
  <path d="M130,75 L140,85 L120,85 Z" fill="#FF6B2B" />
  
  <!-- Search Bar -->
  <rect x="130" y="110" width="320" height="40" rx="20" ry="20" fill="white" stroke="#e2e2e2" stroke-width="1.5" />
  <text x="175" y="135" font-family="Arial" font-size="16" fill="#888888">Search items...</text>
  <circle cx="150" cy="130" r="10" fill="none" stroke="#888888" stroke-width="1.5" />
  <line x1="157" y1="137" x2="165" y2="145" stroke="#888888" stroke-width="1.5" />
  
  <!-- Item Count -->
  <rect x="460" y="110" width="120" height="40" rx="20" ry="20" fill="white" stroke="#e2e2e2" stroke-width="1.5" />
  <text x="475" y="135" font-family="Arial" font-size="16" fill="#333333">7 items • 25 units</text>
  
  <!-- View Options -->
  <rect x="110" y="170" width="580" height="40" rx="5" ry="5" fill="white" stroke="#f5f5f5" stroke-width="1.5" />
  <text x="150" y="195" font-family="Arial" font-size="16" fill="#333333">View options</text>
  <circle cx="130" cy="190" r="10" fill="none" stroke="#FF6B2B" stroke-width="1.5" />
  <path d="M125,190 L135,190 M130,185 L130,195" stroke="#888888" stroke-width="1.5" />

  <!-- View Toggle Options -->
  <rect x="62" y="220" width="100" height="40" rx="20" ry="20" fill="#FFF1E7" transform="translate(100, 0)" />
  <text x="210" y="245" font-family="Arial" font-size="16" font-weight="bold" fill="#FF6B2B">Grid</text>
  <rect x="170" y="220" width="100" height="40" rx="20" ry="20" fill="white" stroke="#e2e2e2" stroke-width="1.5" />
  <text x="310" y="245" font-family="Arial" font-size="16" fill="#666666">Compact</text>
  
  <!-- Sort Ungrouped Option -->
  <rect x="580" y="170" width="100" height="40" rx="5" ry="5" fill="white" stroke="#e2e2e2" stroke-width="1.5" />
  <text x="600" y="195" font-family="Arial" font-size="16" fill="#FF6B2B">Ungrouped</text>
  
  <!-- Category Section -->
  <rect x="110" y="270" width="580" height="40" rx="5" ry="5" fill="white" stroke="#f5f5f5" stroke-width="1.5" />
  <text x="150" y="295" font-family="Arial" font-size="16" fill="#333333">Category</text>
  <path d="M130,285 L140,295 L120,295 Z" fill="#666666" />
  
  <!-- Category Options -->
  <rect x="110" y="320" width="70" height="40" rx="20" ry="20" fill="#FFF1E7" />
  <text x="135" y="345" font-family="Arial" font-size="16" font-weight="bold" fill="#FF6B2B">All</text>
  <rect x="190" y="320" width="90" height="40" rx="20" ry="20" fill="white" stroke="#e2e2e2" stroke-width="1.5" />
  <text x="220" y="345" font-family="Arial" font-size="16" fill="#666666">Food</text>
  <rect x="290" y="320" width="120" height="40" rx="20" ry="20" fill="white" stroke="#e2e2e2" stroke-width="1.5" />
  <text x="320" y="345" font-family="Arial" font-size="16" fill="#666666">Household</text>
  
  <!-- Urgency Section -->
  <rect x="110" y="370" width="580" height="40" rx="5" ry="5" fill="white" stroke="#f5f5f5" stroke-width="1.5" />
  <text x="150" y="395" font-family="Arial" font-size="16" fill="#333333">Urgency</text>
  <path d="M130,385 L140,395 L120,395 Z" fill="#666666" />
  
  <!-- Urgency Options -->
  <rect x="110" y="420" width="70" height="40" rx="20" ry="20" fill="#FFF1E7" />
  <text x="135" y="445" font-family="Arial" font-size="16" font-weight="bold" fill="#FF6B2B">All</text>
  <rect x="190" y="420" width="100" height="40" rx="20" ry="20" fill="white" stroke="#e2e2e2" stroke-width="1.5" />
  <text x="220" y="445" font-family="Arial" font-size="16" fill="#666666">Expiring</text>
  <rect x="300" y="420" width="100" height="40" rx="20" ry="20" fill="white" stroke="#e2e2e2" stroke-width="1.5" />
  <text x="330" y="445" font-family="Arial" font-size="16" fill="#666666">Expired</text>
  
  <!-- Subcategories Section -->
  <rect x="110" y="470" width="580" height="40" rx="5" ry="5" fill="white" stroke="#f5f5f5" stroke-width="1.5" />
  <text x="150" y="495" font-family="Arial" font-size="16" fill="#333333">Subcategories</text>
  <path d="M130,485 L140,495 L120,495 Z" fill="#666666" />
  
  <!-- Subcategory Options -->
  <rect x="110" y="520" width="90" height="40" rx="20" ry="20" fill="white" stroke="#e2e2e2" stroke-width="1.5" />
  <text x="140" y="545" font-family="Arial" font-size="16" fill="#666666">Dairy</text>
  <rect x="210" y="520" width="90" height="40" rx="20" ry="20" fill="white" stroke="#e2e2e2" stroke-width="1.5" />
  <text x="240" y="545" font-family="Arial" font-size="16" fill="#666666">Eggs</text>
  <rect x="310" y="520" width="180" height="40" rx="20" ry="20" fill="white" stroke="#e2e2e2" stroke-width="1.5" />
  <text x="340" y="545" font-family="Arial" font-size="16" fill="#666666">Fruits & Vegetables</text>
  <rect x="500" y="520" width="90" height="40" rx="20" ry="20" fill="white" stroke="#e2e2e2" stroke-width="1.5" />
  <text x="530" y="545" font-family="Arial" font-size="16" fill="#666666">Meat</text>
  <rect x="110" y="570" width="150" height="40" rx="20" ry="20" fill="white" stroke="#e2e2e2" stroke-width="1.5" />
  <text x="140" y="595" font-family="Arial" font-size="16" fill="#666666">Personal Care</text>
  
  <!-- Bottom Buttons -->
  <rect x="110" y="620" width="100" height="40" rx="5" ry="5" fill="white" stroke="#e2e2e2" stroke-width="1.5" />
  <text x="135" y="645" font-family="Arial" font-size="16" fill="#666666">No filters</text>
  
  <rect x="520" y="620" width="80" height="40" rx="5" ry="5" fill="white" stroke="#e2e2e2" stroke-width="1.5" />
  <text x="545" y="645" font-family="Arial" font-size="16" fill="#FF6B2B">Done</text>
  
  <!-- Highlighted Areas -->
  <!-- Sort Button Highlight -->
  <rect x="100" y="50" width="180" height="60" rx="10" ry="10" fill="none" stroke="#FF6B2B" stroke-width="3" stroke-dasharray="5,5" />
  <text x="60" y="80" font-family="Arial" font-size="16" font-weight="bold" fill="#FF6B2B">Sort by Expiry</text>
  <line x1="90" y1="80" x2="110" y2="80" stroke="#FF6B2B" stroke-width="2" />
  
  <!-- View Options Highlight -->
  <rect x="150" y="220" width="230" height="40" rx="5" ry="5" fill="none" stroke="#FF6B2B" stroke-width="3" stroke-dasharray="5,5" />
  <text x="400" y="240" font-family="Arial" font-size="16" font-weight="bold" fill="#FF6B2B">Grid or List View</text>
  <line x1="380" y1="240" x2="350" y2="240" stroke="#FF6B2B" stroke-width="2" />
  
  <!-- Category Filter Highlight -->
  <rect x="100" y="270" width="600" height="100" rx="10" ry="10" fill="none" stroke="#FF6B2B" stroke-width="3" stroke-dasharray="5,5" />
  <text x="730" y="320" font-family="Arial" font-size="16" font-weight="bold" fill="#FF6B2B">Filter by Category</text>
  <line x1="730" y1="320" x2="700" y2="320" stroke="#FF6B2B" stroke-width="2" />
  
  <!-- Urgency Filter Highlight -->
  <rect x="100" y="370" width="600" height="100" rx="10" ry="10" fill="none" stroke="#FF6B2B" stroke-width="3" stroke-dasharray="5,5" />
  <text x="730" y="420" font-family="Arial" font-size="16" font-weight="bold" fill="#FF6B2B">Filter by Urgency</text>
  <line x1="730" y1="420" x2="700" y2="420" stroke="#FF6B2B" stroke-width="2" />
  
  <!-- Subcategory Filter Highlight -->
  <rect x="100" y="470" width="600" height="150" rx="10" ry="10" fill="none" stroke="#FF6B2B" stroke-width="3" stroke-dasharray="5,5" />
  <text x="730" y="545" font-family="Arial" font-size="16" font-weight="bold" fill="#FF6B2B">Filter by Subcategory</text>
  <line x1="730" y1="545" x2="700" y2="545" stroke="#FF6B2B" stroke-width="2" />
</svg> 