<?xml version="1.0" encoding="UTF-8"?>
<svg width="600" height="400" viewBox="0 0 600 400" xmlns="http://www.w3.org/2000/svg">
  <!-- Gradient Background -->
  <defs>
    <linearGradient id="orangeGradient" x1="0%" y1="0%" x2="100%" y2="100%">
      <stop offset="0%" style="stop-color:#ff8c00;stop-opacity:0.2"/>
      <stop offset="100%" style="stop-color:#ff8c00;stop-opacity:0.05"/>
    </linearGradient>
    <filter id="shadow" x="-20%" y="-20%" width="140%" height="140%">
      <feDropShadow dx="0" dy="3" stdDeviation="5" flood-color="#ff8c00" flood-opacity="0.3"/>
    </filter>
  </defs>
  <rect width="600" height="400" fill="url(#orangeGradient)"/>
  
  <!-- Celebration Graphics -->
  <circle cx="300" cy="160" r="80" fill="#ff8c00" filter="url(#shadow)"/>
  <path d="M270 160 L290 185 L340 135" stroke="white" stroke-width="8" stroke-linecap="round" stroke-linejoin="round" fill="none"/>
  
  <!-- Confetti -->
  <rect x="100" y="50" width="10" height="5" fill="#4CAF50" transform="rotate(30 100 50)"/>
  <rect x="150" y="80" width="15" height="7" fill="#2196F3" transform="rotate(-20 150 80)"/>
  <rect x="200" y="40" width="12" height="6" fill="#FFC107" transform="rotate(45 200 40)"/>
  <rect x="450" y="70" width="14" height="7" fill="#9C27B0" transform="rotate(-15 450 70)"/>
  <rect x="500" y="50" width="10" height="5" fill="#F44336" transform="rotate(60 500 50)"/>
  
  <rect x="120" y="250" width="10" height="5" fill="#4CAF50" transform="rotate(-10 120 250)"/>
  <rect x="170" y="270" width="15" height="7" fill="#2196F3" transform="rotate(25 170 270)"/>
  <rect x="520" y="280" width="12" height="6" fill="#FFC107" transform="rotate(-30 520 280)"/>
  <rect x="470" y="240" width="14" height="7" fill="#9C27B0" transform="rotate(10 470 240)"/>
  <rect x="370" y="260" width="10" height="5" fill="#F44336" transform="rotate(-40 370 260)"/>
  
  <!-- Header -->
  <text x="300" y="280" font-family="Arial, sans-serif" font-size="26" font-weight="bold" fill="#333333" text-anchor="middle">Congratulations!</text>
  <text x="300" y="310" font-family="Arial, sans-serif" font-size="16" fill="#666666" text-anchor="middle">You've mastered all advanced features</text>
  
  <!-- Feature Map -->
  <rect x="120" y="340" width="360" height="40" rx="20" ry="20" fill="white" stroke="#e0e0e0" stroke-width="1"/>
  
  <!-- Feature Icons -->
  <circle cx="150" cy="360" r="12" fill="#ff8c00" fill-opacity="0.8"/>
  <path d="M145 360 l5 5 l5 -5" stroke="white" stroke-width="1.5" fill="none"/>
  
  <circle cx="190" cy="360" r="12" fill="#ff8c00" fill-opacity="0.8"/>
  <path d="M185 362 l5 -5 l5 5" stroke="white" stroke-width="1.5" fill="none"/>
  
  <circle cx="230" cy="360" r="12" fill="#ff8c00" fill-opacity="0.8"/>
  <text x="230" y="364" font-family="Arial, sans-serif" font-size="10" fill="white" text-anchor="middle">$</text>
  
  <circle cx="270" cy="360" r="12" fill="#ff8c00" fill-opacity="0.8"/>
  <path d="M267 357 l3 3 l3 -3 M267 363 l3 -3 l3 3" stroke="white" stroke-width="1.5" fill="none"/>
  
  <circle cx="310" cy="360" r="12" fill="#ff8c00" fill-opacity="0.8"/>
  <path d="M307 360 a3 3 0 1 0 0 0.1 M313 360 a3 3 0 1 0 0 0.1" stroke="white" stroke-width="1.5" fill="none"/>
  
  <circle cx="350" cy="360" r="12" fill="#ff8c00" fill-opacity="0.8"/>
  <path d="M347 360 l6 0 M350 357 l0 6" stroke="white" stroke-width="1.5" fill="none"/>
  
  <circle cx="390" cy="360" r="12" fill="#ff8c00" fill-opacity="0.8"/>
  <text x="390" y="364" font-family="Arial, sans-serif" font-size="10" fill="white" text-anchor="middle">✓</text>
  
  <circle cx="430" cy="360" r="12" fill="#ff8c00" fill-opacity="0.8"/>
  <path d="M427 358 l3 3 l3 -3" stroke="white" stroke-width="1.5" fill="none"/>
  
  <text x="300" y="390" font-family="Arial, sans-serif" font-size="12" fill="#666666" text-anchor="middle">You're now a WhatsLeft power user!</text>
</svg> 